<svg width="24" height="24" viewBox="0 0 24 24" fill="none" xmlns="http://www.w3.org/2000/svg">
<path d="M3 6.58929C3 6.03517 3.21071 5.50375 3.58579 5.11194C3.96086 4.72012 4.46957 4.5 5 4.5H19C19.5304 4.5 20.0391 4.72012 20.4142 5.11194C20.7893 5.50375 21 6.03517 21 6.58929V17.0357C21 17.5898 20.7893 18.1212 20.4142 18.5131C20.0391 18.9049 19.5304 19.125 19 19.125H5C4.46957 19.125 3.96086 18.9049 3.58579 18.5131C3.21071 18.1212 3 17.5898 3 17.0357V6.58929Z" stroke="#CDCFD3" stroke-width="2" stroke-linecap="round" stroke-linejoin="round"/>
<path d="M3 6.58936L12 12.8572L21 6.58936" stroke="#CDCFD3" stroke-width="2" stroke-linecap="round" stroke-linejoin="round"/>
</svg>
