<svg width="24" height="24" viewBox="0 0 24 24" fill="none" xmlns="http://www.w3.org/2000/svg">
<path d="M18 7H8.28751C8.08859 7 7.89783 6.92098 7.75718 6.78033C7.61652 6.63968 7.53751 6.44891 7.53751 6.25C7.53751 6.05109 7.61652 5.86032 7.75718 5.71967C7.89783 5.57902 8.08859 5.5 8.28751 5.5H18.75C18.9489 5.5 19.1397 5.57902 19.2803 5.71967C19.421 5.86032 19.5 6.05109 19.5 6.25V16.75C19.5 16.9489 19.421 17.1397 19.2803 17.2803C19.1397 17.421 18.9489 17.5 18.75 17.5C18.5511 17.5 18.3603 17.421 18.2197 17.2803C18.079 17.1397 18 16.9489 18 16.75V7Z" fill="white"/>
<path d="M18.219 5.71897C18.3598 5.57814 18.5508 5.49902 18.75 5.49902C18.9492 5.49902 19.1402 5.57814 19.281 5.71897C19.4218 5.8598 19.5009 6.05081 19.5009 6.24997C19.5009 6.44913 19.4218 6.64014 19.281 6.78097L6.531 19.531C6.46127 19.6007 6.37849 19.656 6.28738 19.6938C6.19627 19.7315 6.09862 19.7509 6 19.7509C5.90139 19.7509 5.80374 19.7315 5.71263 19.6938C5.62152 19.656 5.53873 19.6007 5.469 19.531C5.39927 19.4612 5.34396 19.3785 5.30622 19.2873C5.26848 19.1962 5.24905 19.0986 5.24905 19C5.24905 18.9014 5.26848 18.8037 5.30622 18.7126C5.34396 18.6215 5.39927 18.5387 5.469 18.469L18.219 5.71897Z" fill="white"/>
</svg>
